<?xml version="1.0" encoding="utf-8"?>
<!-- Generator: Adobe Illustrator 25.2.3, SVG Export Plug-In . SVG Version: 6.00 Build 0)  -->
<svg version="1.1" id="Layer_1" xmlns="http://www.w3.org/2000/svg" xmlns:xlink="http://www.w3.org/1999/xlink" x="0px" y="0px"
	 viewBox="0 0 800 600" style="enable-background:new 0 0 800 600;" xml:space="preserve">
<style type="text/css">
	.st0{fill:#323232;}
</style>
<g>
	<path class="st0" d="M310.91,298.22v43.26c-0.1,7.5-2.88,14-8.27,19.37c-5.46,5.48-12.14,8.26-19.86,8.26
		c-7.75,0-14.44-2.78-19.91-8.27c-1.16-1.14-2.21-2.35-3.09-3.57l-1.33-1.84l6.66-5.28l1.46,2.04c0.64,0.91,1.42,1.84,2.32,2.78
		c3.84,3.8,8.39,5.66,13.89,5.66c5.49,0,10.04-1.86,13.92-5.7c2.68-2.69,4.41-5.65,5.22-8.95c-1.38,1.23-2.89,2.32-4.53,3.26
		c-4.04,2.3-8.45,3.46-13.11,3.46c-7.32,0-13.66-2.62-18.86-7.79c-5.17-5.2-7.8-11.53-7.8-18.83v-19.11h8.45v19.11
		c0,5.06,1.74,9.26,5.33,12.85c3.59,3.61,7.8,5.36,12.88,5.36c5.04,0,9.23-1.74,12.82-5.33c3.61-3.59,5.36-7.79,5.36-12.85v-27.89
		H310.91z"/>
	<path class="st0" d="M348.74,295.53c-8.11,0-15.13,2.92-20.89,8.68c-5.73,5.73-8.64,12.75-8.64,20.86s2.91,15.12,8.64,20.86
		c5.76,5.76,12.79,8.68,20.89,8.68c8.11,0,15.13-2.92,20.85-8.67c5.76-5.74,8.68-12.75,8.68-20.86s-2.92-15.13-8.67-20.85
		C363.86,298.45,356.84,295.53,348.74,295.53z M348.74,345.73c-5.76,0-10.54-1.98-14.62-6.05c-4.07-4.07-6.05-8.85-6.05-14.62
		s1.98-10.54,6.05-14.62c4.07-4.07,8.85-6.05,14.62-6.05s10.54,1.98,14.62,6.05c4.07,4.07,6.05,8.85,6.05,14.62
		s-1.98,10.54-6.05,14.62C359.28,343.75,354.5,345.73,348.74,345.73z"/>
	<path class="st0" d="M411.94,295.32c-7.05,0-13.17,2.53-18.19,7.52c-4.98,5.01-7.51,11.13-7.51,18.18v31.68h8.87v-31.68
		c0-4.7,1.61-8.59,4.93-11.91c3.32-3.32,7.21-4.93,11.91-4.93c4.67,0,8.56,1.61,11.88,4.93c3.34,3.32,4.96,7.21,4.96,11.9v31.68
		h8.83v-31.68c0-7.05-2.53-13.17-7.52-18.19C425.08,297.84,418.97,295.32,411.94,295.32z"/>
	<path class="st0" d="M456.06,288.39h-8.9v43.77c0,6.12,2.22,11.44,6.6,15.79c4.33,4.33,9.64,6.53,15.76,6.53
		c4.43,0,8.48-1.17,12.01-3.46l1.14-0.74v-11.88l-4.18,3.79c-2.55,2.31-5.48,3.43-8.97,3.43c-3.75,0-6.86-1.29-9.52-3.94
		s-3.94-5.77-3.94-9.52v-25.87h26.61v-8.87h-26.61V288.39z"/>
	<path class="st0" d="M517.86,295.49c-7.03,0-13.13,2.53-18.12,7.52s-7.52,11.08-7.52,18.12v31.5h8.87v-31.5
		c0-4.67,1.61-8.56,4.93-11.88c3.29-3.31,7.16-4.92,11.83-4.92c1.74,0,3.48,0.28,5.17,0.83l3.27,1.07v-9.37l-1.86-0.49
		C522.29,295.78,520.08,295.49,517.86,295.49z"/>
	<path class="st0" d="M559.58,295.53c-8.11,0-15.13,2.92-20.89,8.68c-5.73,5.73-8.64,12.75-8.64,20.86s2.91,15.12,8.64,20.86
		c5.76,5.76,12.79,8.68,20.89,8.68c8.11,0,15.13-2.92,20.85-8.67c5.76-5.74,8.68-12.75,8.68-20.86s-2.92-15.13-8.67-20.85
		C574.71,298.45,567.69,295.53,559.58,295.53z M559.58,345.73c-5.76,0-10.54-1.98-14.62-6.05s-6.05-8.85-6.05-14.62
		s1.98-10.54,6.05-14.62s8.85-6.05,14.62-6.05s10.54,1.98,14.62,6.05s6.05,8.85,6.05,14.62s-1.98,10.54-6.05,14.62
		S565.34,345.73,559.58,345.73z"/>
	<path class="st0" d="M640.93,302.83c-5.01-4.99-11.12-7.51-18.15-7.51c-7.05,0-13.17,2.53-18.19,7.52
		c-4.99,5.01-7.51,11.13-7.51,18.18v31.68h8.87v-31.68c0-4.7,1.61-8.59,4.93-11.91c3.32-3.32,7.21-4.93,11.91-4.93
		c4.67,0,8.56,1.61,11.88,4.93c3.34,3.32,4.96,7.21,4.96,11.9v31.68h8.83v-31.68C648.45,313.97,645.93,307.85,640.93,302.83z"/>
	<g>
		<path class="st0" d="M176.06,279.42c2.67-2.56,5.26-5.2,7.89-7.8c5.28-5.19,10.41-10.51,15.55-15.83l7.64-8.04l4.59-4.92
			c4.05,4.34,8.11,8.67,12.23,12.95c5.13,5.33,10.28,10.63,15.55,15.83c5.21,5.25,10.55,10.38,15.91,15.5
			c5.42,5.06,10.83,10.13,16.5,14.95c-4.36-6.04-8.98-11.83-13.59-17.64c-4.67-5.75-9.37-11.47-14.18-17.09
			c-4.76-5.67-9.64-11.22-14.54-16.76c-4.91-5.53-9.88-11-14.89-16.44l-2.98-3.24l-2.97,3.24l-7.49,8.18l-7.41,8.25
			c-4.9,5.54-9.79,11.08-14.54,16.75c-2.38,2.83-4.81,5.62-7.15,8.49l-7.03,8.6c-4.6,5.81-9.23,11.6-13.58,17.64
			c5.68-4.82,11.08-9.89,16.51-14.94L176.06,279.42z"/>
		<path class="st0" d="M211.66,276.22c-9.69-0.2-19.33,2.3-27.84,6.52c-8.55,4.2-16.1,10.05-22.42,16.88
			c7.86-5,15.82-9.54,24.21-12.75c8.39-3.15,17.16-5.06,25.98-4.86c8.81,0.12,17.56,2.08,25.97,5.26
			c8.42,3.21,16.46,7.61,24.48,12.35c-6.53-6.63-14.14-12.32-22.68-16.5C230.88,278.91,221.35,276.35,211.66,276.22z"/>
		<g>
			<rect x="204.84" y="258.58" class="st0" width="4.6" height="4.55"/>
			<rect x="212.29" y="258.58" class="st0" width="4.6" height="4.55"/>
			<rect x="204.84" y="265.99" class="st0" width="4.6" height="4.54"/>
			<rect x="212.29" y="265.99" class="st0" width="4.6" height="4.54"/>
		</g>
	</g>
	<g>
		<path class="st0" d="M253.49,362.35c0.07,0.09,0.14,0.19,0.21,0.28h-89.96v-1.5h88.87L253.49,362.35z"/>
		<path class="st0" d="M648.45,361.13v1.5H309.63c0.38-0.49,0.73-0.99,1.06-1.5H648.45z"/>
	</g>
	<g>
		<path class="st0" d="M202.54,295.1c-7.05,0-13.17,2.53-18.19,7.52c-4.98,5.01-7.51,11.13-7.51,18.18v31.68h8.87v-31.68
			c0-4.7,1.61-8.59,4.93-11.91c3.32-3.32,7.21-4.93,11.91-4.93c4.67,0,8.56,1.61,11.88,4.93c3.34,3.32,4.96,7.21,4.96,11.9v31.68
			h8.83v-31.68c0-7.05-2.53-13.17-7.52-18.19C215.67,297.63,209.56,295.1,202.54,295.1z"/>
		<rect x="237.75" y="297.21" class="st0" width="8.87" height="55.2"/>
		<path class="st0" d="M212.3,311.03c-2.52-2.53-5.33-3.82-8.76-4.02c-0.32-0.03-0.66-0.04-1-0.04c-0.34,0-0.67,0.01-1,0.04
			c-3.45,0.2-6.26,1.49-8.79,4.01c-2.76,2.77-4.05,5.88-4.05,9.79v31.68h2v-11.56h10.84v11.56h2v-11.56h10.83v11.56h2v-31.68
			C216.37,316.9,215.08,313.79,212.3,311.03z M201.54,338.93H190.7V324.8h10.84V338.93z M201.54,322.8H190.7v-1.99
			c0-3.39,1.07-5.97,3.47-8.38c2.16-2.15,4.46-3.23,7.37-3.43V322.8z M203.54,309c2.9,0.2,5.19,1.28,7.34,3.44
			c2.42,2.4,3.49,4.98,3.49,8.37v1.99h-10.83V309z M203.54,338.93V324.8h10.83v14.13H203.54z"/>
	</g>
	<line class="st0" x1="266.07" y1="306.97" x2="257.62" y2="306.97"/>
</g>
</svg>
